<svg width="20" height="21" viewBox="0 0 20 21" fill="none" xmlns="http://www.w3.org/2000/svg">
<path d="M13.3333 7.50073C14.6594 7.50073 15.9312 8.02752 16.8688 8.9652C17.8065 9.90288 18.3333 11.1746 18.3333 12.5007V18.3341H15V12.5007C15 12.0587 14.8244 11.6348 14.5118 11.3222C14.1993 11.0097 13.7753 10.8341 13.3333 10.8341C12.8913 10.8341 12.4674 11.0097 12.1548 11.3222C11.8422 11.6348 11.6666 12.0587 11.6666 12.5007V18.3341H8.33331V12.5007C8.33331 11.1746 8.8601 9.90288 9.79778 8.9652C10.7355 8.02752 12.0072 7.50073 13.3333 7.50073Z" stroke="#9CA3AF" stroke-width="2" stroke-linecap="round" stroke-linejoin="round"/>
<path d="M5.00002 8.33398H1.66669V18.334H5.00002V8.33398Z" stroke="#9CA3AF" stroke-width="2" stroke-linecap="round" stroke-linejoin="round"/>
<path d="M3.33335 5.83407C4.25383 5.83407 5.00002 5.08787 5.00002 4.1674C5.00002 3.24692 4.25383 2.50073 3.33335 2.50073C2.41288 2.50073 1.66669 3.24692 1.66669 4.1674C1.66669 5.08787 2.41288 5.83407 3.33335 5.83407Z" stroke="#9CA3AF" stroke-width="2" stroke-linecap="round" stroke-linejoin="round"/>
</svg>
