<svg width="48" height="49" viewBox="0 0 48 49" fill="none" xmlns="http://www.w3.org/2000/svg">
<path d="M0 24.6667C0 11.4118 10.7452 0.666672 24 0.666672C37.2548 0.666672 48 11.4118 48 24.6667C48 37.9215 37.2548 48.6667 24 48.6667C10.7452 48.6667 0 37.9215 0 24.6667Z" fill="#DBEAFE"/>
<path d="M28 33.6667V31.6667C28 30.6058 27.5786 29.5884 26.8284 28.8382C26.0783 28.0881 25.0609 27.6667 24 27.6667H18C16.9391 27.6667 15.9217 28.0881 15.1716 28.8382C14.4214 29.5884 14 30.6058 14 31.6667V33.6667" stroke="#2563EB" stroke-width="2" stroke-linecap="round" stroke-linejoin="round"/>
<path d="M21 23.6667C23.2091 23.6667 25 21.8758 25 19.6667C25 17.4575 23.2091 15.6667 21 15.6667C18.7909 15.6667 17 17.4575 17 19.6667C17 21.8758 18.7909 23.6667 21 23.6667Z" stroke="#2563EB" stroke-width="2" stroke-linecap="round" stroke-linejoin="round"/>
<path d="M34 33.6667V31.6667C33.9993 30.7804 33.7044 29.9194 33.1614 29.219C32.6184 28.5185 31.8581 28.0182 31 27.7967" stroke="#2563EB" stroke-width="2" stroke-linecap="round" stroke-linejoin="round"/>
<path d="M28 15.7967C28.8604 16.017 29.623 16.5174 30.1676 17.219C30.7122 17.9206 31.0078 18.7835 31.0078 19.6717C31.0078 20.5598 30.7122 21.4228 30.1676 22.1244C29.623 22.826 28.8604 23.3264 28 23.5467" stroke="#2563EB" stroke-width="2" stroke-linecap="round" stroke-linejoin="round"/>
</svg>
