<svg width="20" height="21" viewBox="0 0 20 21" fill="none" xmlns="http://www.w3.org/2000/svg">
<g clip-path="url(#clip0_1_536)">
<path d="M14.1667 2.50073H5.83335C3.53217 2.50073 1.66669 4.36621 1.66669 6.6674V15.0007C1.66669 17.3019 3.53217 19.1674 5.83335 19.1674H14.1667C16.4679 19.1674 18.3334 17.3019 18.3334 15.0007V6.6674C18.3334 4.36621 16.4679 2.50073 14.1667 2.50073Z" stroke="#9CA3AF" stroke-width="2" stroke-linecap="round" stroke-linejoin="round"/>
<path d="M13.3333 10.309C13.4362 11.0025 13.3177 11.7108 12.9948 12.3332C12.6719 12.9555 12.1609 13.4602 11.5347 13.7754C10.9084 14.0906 10.1987 14.2003 9.50647 14.0889C8.81425 13.9775 8.17478 13.6507 7.67901 13.155C7.18324 12.6592 6.85642 12.0197 6.74504 11.3275C6.63365 10.6353 6.74337 9.92557 7.05858 9.2993C7.3738 8.67304 7.87847 8.16211 8.5008 7.83919C9.12313 7.51628 9.83144 7.39782 10.525 7.50066C11.2324 7.60556 11.8874 7.93521 12.3931 8.44091C12.8988 8.94662 13.2284 9.60156 13.3333 10.309Z" stroke="#9CA3AF" stroke-width="2" stroke-linecap="round" stroke-linejoin="round"/>
<path d="M14.5833 6.25073H14.5916" stroke="#9CA3AF" stroke-width="2" stroke-linecap="round" stroke-linejoin="round"/>
</g>
<defs>
<clipPath id="clip0_1_536">
<rect width="20" height="20" fill="white" transform="translate(0 0.833984)"/>
</clipPath>
</defs>
</svg>
