<svg width="21" height="21" viewBox="0 0 21 21" fill="none" xmlns="http://www.w3.org/2000/svg">
<path d="M7.83331 3.33333H3.66665C3.20641 3.33333 2.83331 3.70642 2.83331 4.16666V9.99999C2.83331 10.4602 3.20641 10.8333 3.66665 10.8333H7.83331C8.29355 10.8333 8.66665 10.4602 8.66665 9.99999V4.16666C8.66665 3.70642 8.29355 3.33333 7.83331 3.33333Z" stroke="#DBEAFE" stroke-width="2" stroke-linecap="round" stroke-linejoin="round"/>
<path d="M17 3.33333H12.8333C12.3731 3.33333 12 3.70642 12 4.16666V6.66666C12 7.1269 12.3731 7.49999 12.8333 7.49999H17C17.4602 7.49999 17.8333 7.1269 17.8333 6.66666V4.16666C17.8333 3.70642 17.4602 3.33333 17 3.33333Z" stroke="#DBEAFE" stroke-width="2" stroke-linecap="round" stroke-linejoin="round"/>
<path d="M17 10.8333H12.8333C12.3731 10.8333 12 11.2064 12 11.6667V17.5C12 17.9602 12.3731 18.3333 12.8333 18.3333H17C17.4602 18.3333 17.8333 17.9602 17.8333 17.5V11.6667C17.8333 11.2064 17.4602 10.8333 17 10.8333Z" stroke="#DBEAFE" stroke-width="2" stroke-linecap="round" stroke-linejoin="round"/>
<path d="M7.83331 14.1667H3.66665C3.20641 14.1667 2.83331 14.5398 2.83331 15V17.5C2.83331 17.9602 3.20641 18.3333 3.66665 18.3333H7.83331C8.29355 18.3333 8.66665 17.9602 8.66665 17.5V15C8.66665 14.5398 8.29355 14.1667 7.83331 14.1667Z" stroke="#DBEAFE" stroke-width="2" stroke-linecap="round" stroke-linejoin="round"/>
</svg>
