<svg width="18" height="19" viewBox="0 0 18 19" fill="none" xmlns="http://www.w3.org/2000/svg">
<g clip-path="url(#clip0_1_590)">
<path d="M16.5 13.5241V15.7741C16.5009 15.9829 16.4581 16.1897 16.3744 16.3811C16.2907 16.5725 16.168 16.7442 16.0141 16.8855C15.8602 17.0267 15.6784 17.1342 15.4806 17.2011C15.2827 17.268 15.073 17.2929 14.865 17.2741C12.5571 17.0233 10.3403 16.2347 8.39251 14.9716C6.58038 13.8201 5.04401 12.2837 3.89251 10.4716C2.62499 8.51496 1.83619 6.2873 1.59001 3.96906C1.57127 3.76166 1.59592 3.55263 1.66239 3.35528C1.72886 3.15792 1.83569 2.97657 1.97609 2.82277C2.11648 2.66897 2.28736 2.54609 2.47785 2.46195C2.66834 2.37781 2.87427 2.33425 3.08251 2.33406H5.33251C5.69649 2.33047 6.04935 2.45937 6.32533 2.69671C6.60131 2.93405 6.78157 3.26364 6.83251 3.62406C6.92748 4.34411 7.1036 5.0511 7.35751 5.73156C7.45842 6 7.48026 6.29174 7.42044 6.57222C7.36062 6.85269 7.22166 7.11014 7.02001 7.31406L6.06751 8.26656C7.13518 10.1442 8.68985 11.6989 10.5675 12.7666L11.52 11.8141C11.7239 11.6124 11.9814 11.4734 12.2619 11.4136C12.5423 11.3538 12.8341 11.3756 13.1025 11.4766C13.783 11.7305 14.49 11.9066 15.21 12.0016C15.5743 12.053 15.9071 12.2365 16.1449 12.5172C16.3828 12.7979 16.5091 13.1562 16.5 13.5241Z" stroke="#60A5FA" stroke-width="2" stroke-linecap="round" stroke-linejoin="round"/>
</g>
<defs>
<clipPath id="clip0_1_590">
<rect width="18" height="18" fill="white" transform="translate(0 0.833984)"/>
</clipPath>
</defs>
</svg>
