<svg width="20" height="21" viewBox="0 0 20 21" fill="none" xmlns="http://www.w3.org/2000/svg">
<g clip-path="url(#clip0_1_149)">
<path d="M14.5381 4.17022H14.5371H14.5361C14.5354 4.1701 14.5345 4.16946 14.5332 4.16925C14.5306 4.16881 14.5262 4.16906 14.5215 4.16827C14.5121 4.16671 14.4987 4.16419 14.4814 4.16143C14.4461 4.15578 14.3945 4.1475 14.3301 4.138C14.2014 4.11902 14.019 4.09381 13.8018 4.06866C13.369 4.01856 12.7882 3.9671 12.2148 3.9671C10.9719 3.96713 9.88899 4.34613 9.11621 5.11944C8.34287 5.89351 7.9375 7.00595 7.9375 8.3587V10.0599H5.39844V13.9515H7.9375V19.8333C3.68272 18.8915 0.5 15.0992 0.5 10.5608C0.5 5.31449 4.75364 1.06085 10 1.06085C15.2464 1.06085 19.5 5.31449 19.5 10.5608C19.5 15.0984 16.3172 18.8918 12.0615 19.8343V13.9524H14.3213L14.3857 13.5286L14.8291 10.637L14.918 10.0608H12.0615V8.68585C12.0615 8.36319 12.1418 8.10617 12.2891 7.93585C12.4247 7.77908 12.6789 7.62438 13.1914 7.62432H14.9531V4.24151L14.5381 4.17022Z" fill="black" stroke="black"/>
</g>
<defs>
<clipPath id="clip0_1_149">
<rect width="20" height="20" fill="white" transform="translate(0 0.500015)"/>
</clipPath>
</defs>
</svg>
