<svg width="21" height="21" viewBox="0 0 21 21" fill="none" xmlns="http://www.w3.org/2000/svg">
<g clip-path="url(#clip0_1_153)">
<path d="M1.92609 5.19436C1.92369 4.80161 1.9867 4.41281 2.11163 4.04397C4.20086 6.28863 7.13097 7.75163 10.4075 7.90627L11.0687 7.93752L10.9183 7.29299C10.7375 6.52094 10.817 5.71073 11.1439 4.98831C11.4708 4.26584 12.0266 3.67076 12.7259 3.2969C13.4252 2.92305 14.2287 2.7905 15.011 2.91995C15.7934 3.04939 16.5114 3.43357 17.053 4.01272L17.2435 4.21682L17.5159 4.16213C17.9682 4.07145 18.4077 3.94551 18.8323 3.79104C18.584 4.07712 18.293 4.32716 17.9632 4.52542L18.2816 5.45022C18.576 5.41448 18.8679 5.36285 19.1566 5.29788C18.8807 5.56667 18.5866 5.81717 18.2728 6.04299L18.0462 6.2051L18.0657 6.4844C18.0767 6.63852 18.0775 6.79587 18.0775 6.97366C18.0773 12.1658 14.1228 18.1278 6.91241 18.128H6.91144C5.43797 18.129 3.98576 17.8377 2.63605 17.2793C4.21583 17.09 5.72159 16.472 6.9837 15.4815L8.0882 14.6153L6.6839 14.5889C5.93164 14.5747 5.20214 14.3254 4.59796 13.877C4.20803 13.5875 3.88383 13.2234 3.63995 12.8096C4.03413 12.8065 4.42776 12.756 4.81085 12.6533L4.78058 11.6797C3.96554 11.5147 3.23268 11.0726 2.70636 10.4287C2.33908 9.97938 2.0909 9.45059 1.97296 8.88967C2.37972 9.0208 2.80361 9.09669 3.2337 9.11038L4.97687 9.16604L3.52765 8.19534C2.56188 7.54822 1.92609 6.44821 1.92609 5.19729V5.19436Z" fill="black" stroke="#60A5FA"/>
</g>
<defs>
<clipPath id="clip0_1_153">
<rect width="20" height="20" fill="white" transform="translate(0.614563 0.500015)"/>
</clipPath>
</defs>
</svg>
