<svg width="40" height="41" viewBox="0 0 40 41" fill="none" xmlns="http://www.w3.org/2000/svg">
<path d="M35 20.5001C35.92 20.5001 36.675 19.7518 36.5833 18.8368C36.1991 15.0104 34.5034 11.4346 31.7839 8.71565C29.0643 5.99668 25.4881 4.30184 21.6617 3.91844C20.745 3.82678 19.9983 4.58178 19.9983 5.50178V18.8351C19.9983 19.2771 20.1739 19.7011 20.4865 20.0136C20.799 20.3262 21.223 20.5018 21.665 20.5018L35 20.5001Z" stroke="#2563EB" stroke-width="2" stroke-linecap="round" stroke-linejoin="round"/>
<path d="M35.35 26.9832C34.2897 29.4907 32.6313 31.7002 30.5198 33.4187C28.4083 35.1372 25.908 36.3123 23.2374 36.8412C20.5668 37.3701 17.8074 37.2368 15.2003 36.4529C12.5931 35.669 10.2177 34.2583 8.28171 32.3443C6.3457 30.4303 4.90803 28.0711 4.0944 25.4731C3.28077 22.8751 3.11595 20.1174 3.61434 17.4409C4.11273 14.7645 5.25917 12.2509 6.95342 10.1199C8.64767 7.98894 10.8381 6.30542 13.3333 5.21655" stroke="#2563EB" stroke-width="2" stroke-linecap="round" stroke-linejoin="round"/>
</svg>
