<svg width="25" height="25" viewBox="0 0 25 25" fill="none" xmlns="http://www.w3.org/2000/svg">
<path d="M16.6667 21.5002V19.5002C16.6667 18.4394 16.2453 17.422 15.4952 16.6718C14.745 15.9217 13.7276 15.5002 12.6667 15.5002H6.66675C5.60588 15.5002 4.58847 15.9217 3.83832 16.6718C3.08818 17.422 2.66675 18.4394 2.66675 19.5002V21.5002" stroke="#EAB308" stroke-width="2" stroke-linecap="round" stroke-linejoin="round"/>
<path d="M9.66675 11.5002C11.8759 11.5002 13.6667 9.70938 13.6667 7.50024C13.6667 5.29111 11.8759 3.50024 9.66675 3.50024C7.45761 3.50024 5.66675 5.29111 5.66675 7.50024C5.66675 9.70938 7.45761 11.5002 9.66675 11.5002Z" stroke="#EAB308" stroke-width="2" stroke-linecap="round" stroke-linejoin="round"/>
<path d="M22.6667 21.5002V19.5002C22.6661 18.614 22.3711 17.753 21.8281 17.0526C21.2851 16.3521 20.5249 15.8518 19.6667 15.6302" stroke="#EAB308" stroke-width="2" stroke-linecap="round" stroke-linejoin="round"/>
<path d="M16.6667 3.63025C17.5272 3.85055 18.2898 4.35095 18.8344 5.05256C19.379 5.75417 19.6746 6.61708 19.6746 7.50525C19.6746 8.39342 19.379 9.25633 18.8344 9.95794C18.2898 10.6595 17.5272 11.1599 16.6667 11.3802" stroke="#EAB308" stroke-width="2" stroke-linecap="round" stroke-linejoin="round"/>
</svg>
