<svg width="18" height="19" viewBox="0 0 18 19" fill="none" xmlns="http://www.w3.org/2000/svg">
<g clip-path="url(#clip0_1_584)">
<path d="M15 8.33398C15 12.0787 10.8457 15.9787 9.45075 17.1832C9.32079 17.281 9.1626 17.3338 9 17.3338C8.8374 17.3338 8.67921 17.281 8.54925 17.1832C7.15425 15.9787 3 12.0787 3 8.33398C3 6.74269 3.63214 5.21656 4.75736 4.09134C5.88258 2.96613 7.4087 2.33398 9 2.33398C10.5913 2.33398 12.1174 2.96613 13.2426 4.09134C14.3679 5.21656 15 6.74269 15 8.33398Z" stroke="#60A5FA" stroke-width="2" stroke-linecap="round" stroke-linejoin="round"/>
<path d="M9 10.584C10.2426 10.584 11.25 9.57663 11.25 8.33398C11.25 7.09134 10.2426 6.08398 9 6.08398C7.75736 6.08398 6.75 7.09134 6.75 8.33398C6.75 9.57663 7.75736 10.584 9 10.584Z" stroke="#60A5FA" stroke-width="2" stroke-linecap="round" stroke-linejoin="round"/>
</g>
<defs>
<clipPath id="clip0_1_584">
<rect width="18" height="18" fill="white" transform="translate(0 0.833984)"/>
</clipPath>
</defs>
</svg>
