<svg width="21" height="21" viewBox="0 0 21 21" fill="none" xmlns="http://www.w3.org/2000/svg">
<path d="M15.7708 7.16668C17.1515 7.16668 18.2708 6.04739 18.2708 4.66668C18.2708 3.28597 17.1515 2.16668 15.7708 2.16668C14.3901 2.16668 13.2708 3.28597 13.2708 4.66668C13.2708 6.04739 14.3901 7.16668 15.7708 7.16668Z" stroke="black" stroke-width="2" stroke-linecap="round" stroke-linejoin="round"/>
<path d="M5.77081 13C7.15152 13 8.27081 11.8807 8.27081 10.5C8.27081 9.1193 7.15152 8.00002 5.77081 8.00002C4.3901 8.00002 3.27081 9.1193 3.27081 10.5C3.27081 11.8807 4.3901 13 5.77081 13Z" stroke="black" stroke-width="2" stroke-linecap="round" stroke-linejoin="round"/>
<path d="M15.7708 18.8333C17.1515 18.8333 18.2708 17.7141 18.2708 16.3333C18.2708 14.9526 17.1515 13.8333 15.7708 13.8333C14.3901 13.8333 13.2708 14.9526 13.2708 16.3333C13.2708 17.7141 14.3901 18.8333 15.7708 18.8333Z" stroke="black" stroke-width="2" stroke-linecap="round" stroke-linejoin="round"/>
<path d="M7.92914 11.7583L13.6208 15.075" stroke="black" stroke-width="2" stroke-linecap="round" stroke-linejoin="round"/>
<path d="M13.6125 5.92501L7.92914 9.24168" stroke="black" stroke-width="2" stroke-linecap="round" stroke-linejoin="round"/>
</svg>
