<svg width="21" height="21" viewBox="0 0 21 21" fill="none" xmlns="http://www.w3.org/2000/svg">
<path d="M10.6667 2.83333C12.6558 2.83333 14.5639 3.62309 15.9704 5.02962C17.3769 6.43614 18.1667 8.3442 18.1667 10.3333C18.1667 12.3225 17.3769 14.2305 15.9704 15.637C14.5639 17.0436 12.6558 17.8333 10.6667 17.8333C8.67756 17.8333 6.7695 17.0436 5.36298 15.637C3.95645 14.2305 3.16669 12.3225 3.16669 10.3333C3.16669 8.3442 3.95645 6.43614 5.36298 5.02962C6.7695 3.62309 8.67756 2.83333 10.6667 2.83333ZM9.66669 8.83333C9.26886 8.83333 8.88744 8.99148 8.60614 9.27278C8.32484 9.55409 8.16669 9.9355 8.16669 10.3333C8.16669 10.7312 8.32484 11.1126 8.60614 11.3939C8.76567 11.5534 8.95799 11.6715 9.16669 11.7454V14.3333C9.16669 14.7312 9.32484 15.1126 9.60614 15.3939C9.88744 15.6752 10.2689 15.8333 10.6667 15.8333H11.6667C12.0645 15.8333 12.4459 15.6752 12.7272 15.3939C13.0085 15.1126 13.1667 14.7312 13.1667 14.3333C13.1667 13.9355 13.0085 13.5541 12.7272 13.2728C12.4459 12.9915 12.0645 12.8333 11.6667 12.8333H11.1667V8.83333H9.66669ZM10.6667 4.83333C10.2689 4.83333 9.88744 4.99148 9.60614 5.27278C9.32484 5.55409 9.16669 5.9355 9.16669 6.33333C9.16669 6.73115 9.32484 7.11257 9.60614 7.39388C9.88744 7.67518 10.2689 7.83333 10.6667 7.83333C11.0645 7.83333 11.4459 7.67518 11.7272 7.39388C12.0085 7.11257 12.1667 6.73115 12.1667 6.33333C12.1667 5.9355 12.0085 5.55409 11.7272 5.27278C11.4459 4.99148 11.0645 4.83333 10.6667 4.83333Z" fill="black" stroke="#2563EB"/>
</svg>
