<svg width="25" height="25" viewBox="0 0 25 25" fill="none" xmlns="http://www.w3.org/2000/svg">
<path d="M19.6667 7.83398V4.83398C19.6667 4.56877 19.5613 4.31441 19.3738 4.12688C19.1863 3.93934 18.9319 3.83398 18.6667 3.83398H5.66669C5.13625 3.83398 4.62755 4.0447 4.25247 4.41977C3.8774 4.79484 3.66669 5.30355 3.66669 5.83398C3.66669 6.36442 3.8774 6.87313 4.25247 7.2482C4.62755 7.62327 5.13625 7.83398 5.66669 7.83398H20.6667C20.9319 7.83398 21.1863 7.93934 21.3738 8.12688C21.5613 8.31441 21.6667 8.56877 21.6667 8.83398V12.834M21.6667 12.834H18.6667C18.1363 12.834 17.6275 13.0447 17.2525 13.4198C16.8774 13.7948 16.6667 14.3036 16.6667 14.834C16.6667 15.3644 16.8774 15.8731 17.2525 16.2482C17.6275 16.6233 18.1363 16.834 18.6667 16.834H21.6667C21.9319 16.834 22.1863 16.7286 22.3738 16.5411C22.5613 16.3536 22.6667 16.0992 22.6667 15.834V13.834C22.6667 13.5688 22.5613 13.3144 22.3738 13.1269C22.1863 12.9393 21.9319 12.834 21.6667 12.834Z" stroke="#2563EB" stroke-width="2" stroke-linecap="round" stroke-linejoin="round"/>
<path d="M3.66669 5.83398V19.834C3.66669 20.3644 3.8774 20.8731 4.25247 21.2482C4.62755 21.6233 5.13625 21.834 5.66669 21.834H20.6667C20.9319 21.834 21.1863 21.7286 21.3738 21.5411C21.5613 21.3536 21.6667 21.0992 21.6667 20.834V16.834" stroke="#2563EB" stroke-width="2" stroke-linecap="round" stroke-linejoin="round"/>
</svg>
