<svg width="21" height="21" viewBox="0 0 21 21" fill="none" xmlns="http://www.w3.org/2000/svg">
<path d="M10.5166 2.16669H10.15C9.70795 2.16669 9.28403 2.34228 8.97147 2.65484C8.65891 2.9674 8.48331 3.39133 8.48331 3.83335V3.98335C8.48301 4.27562 8.40586 4.56268 8.2596 4.81572C8.11333 5.06876 7.9031 5.27888 7.64998 5.42502L7.29165 5.63335C7.03828 5.77963 6.75088 5.85664 6.45831 5.85664C6.16575 5.85664 5.87835 5.77963 5.62498 5.63335L5.49998 5.56669C5.11754 5.34607 4.66318 5.28622 4.23665 5.40028C3.81012 5.51433 3.44627 5.79297 3.22498 6.17502L3.04165 6.49169C2.82103 6.87413 2.76118 7.32849 2.87524 7.75502C2.98929 8.18155 3.26793 8.54539 3.64998 8.76669L3.77498 8.85002C4.02688 8.99545 4.23633 9.20426 4.38252 9.45571C4.52872 9.70716 4.60656 9.9925 4.60831 10.2834V10.7084C4.60948 11.002 4.53302 11.2908 4.38668 11.5454C4.24035 11.8001 4.02932 12.0115 3.77498 12.1584L3.64998 12.2334C3.26793 12.4546 2.98929 12.8185 2.87524 13.245C2.76118 13.6716 2.82103 14.1259 3.04165 14.5084L3.22498 14.825C3.44627 15.2071 3.81012 15.4857 4.23665 15.5998C4.66318 15.7138 5.11754 15.654 5.49998 15.4334L5.62498 15.3667C5.87835 15.2204 6.16575 15.1434 6.45831 15.1434C6.75088 15.1434 7.03828 15.2204 7.29165 15.3667L7.64998 15.575C7.9031 15.7212 8.11333 15.9313 8.2596 16.1843C8.40586 16.4374 8.48301 16.7244 8.48331 17.0167V17.1667C8.48331 17.6087 8.65891 18.0326 8.97147 18.3452C9.28403 18.6578 9.70795 18.8334 10.15 18.8334H10.5166C10.9587 18.8334 11.3826 18.6578 11.6952 18.3452C12.0077 18.0326 12.1833 17.6087 12.1833 17.1667V17.0167C12.1836 16.7244 12.2608 16.4374 12.407 16.1843C12.5533 15.9313 12.7635 15.7212 13.0166 15.575L13.375 15.3667C13.6283 15.2204 13.9158 15.1434 14.2083 15.1434C14.5009 15.1434 14.7883 15.2204 15.0416 15.3667L15.1666 15.4334C15.5491 15.654 16.0035 15.7138 16.43 15.5998C16.8565 15.4857 17.2204 15.2071 17.4416 14.825L17.625 14.5C17.8456 14.1176 17.9054 13.6632 17.7914 13.2367C17.6773 12.8102 17.3987 12.4463 17.0166 12.225L16.8916 12.1584C16.6373 12.0115 16.4263 11.8001 16.2799 11.5454C16.1336 11.2908 16.0571 11.002 16.0583 10.7084V10.2917C16.0571 9.998 16.1336 9.70923 16.2799 9.4546C16.4263 9.19997 16.6373 8.98853 16.8916 8.84169L17.0166 8.76669C17.3987 8.54539 17.6773 8.18155 17.7914 7.75502C17.9054 7.32849 17.8456 6.87413 17.625 6.49169L17.4416 6.17502C17.2204 5.79297 16.8565 5.51433 16.43 5.40028C16.0035 5.28622 15.5491 5.34607 15.1666 5.56669L15.0416 5.63335C14.7883 5.77963 14.5009 5.85664 14.2083 5.85664C13.9158 5.85664 13.6283 5.77963 13.375 5.63335L13.0166 5.42502C12.7635 5.27888 12.5533 5.06876 12.407 4.81572C12.2608 4.56268 12.1836 4.27562 12.1833 3.98335V3.83335C12.1833 3.39133 12.0077 2.9674 11.6952 2.65484C11.3826 2.34228 10.9587 2.16669 10.5166 2.16669Z" stroke="#DBEAFE" stroke-width="2" stroke-linecap="round" stroke-linejoin="round"/>
<path d="M10.3333 13C11.714 13 12.8333 11.8807 12.8333 10.5C12.8333 9.1193 11.714 8.00002 10.3333 8.00002C8.9526 8.00002 7.83331 9.1193 7.83331 10.5C7.83331 11.8807 8.9526 13 10.3333 13Z" stroke="#DBEAFE" stroke-width="2" stroke-linecap="round" stroke-linejoin="round"/>
</svg>
