<svg width="40" height="41" viewBox="0 0 40 41" fill="none" xmlns="http://www.w3.org/2000/svg">
<path d="M26.6667 33.8333V7.16659C26.6667 6.28253 26.3155 5.43468 25.6904 4.80956C25.0652 4.18444 24.2174 3.83325 23.3333 3.83325H16.6667C15.7826 3.83325 14.9348 4.18444 14.3097 4.80956C13.6845 5.43468 13.3333 6.28253 13.3333 7.16659V33.8333" stroke="#2563EB" stroke-width="2" stroke-linecap="round" stroke-linejoin="round"/>
<path d="M33.3333 10.5H6.66668C4.82573 10.5 3.33334 11.9924 3.33334 13.8333V30.5C3.33334 32.3409 4.82573 33.8333 6.66668 33.8333H33.3333C35.1743 33.8333 36.6667 32.3409 36.6667 30.5V13.8333C36.6667 11.9924 35.1743 10.5 33.3333 10.5Z" stroke="#2563EB" stroke-width="2" stroke-linecap="round" stroke-linejoin="round"/>
</svg>
