<svg width="40" height="41" viewBox="0 0 40 41" fill="none" xmlns="http://www.w3.org/2000/svg">
<path d="M30 3.83325H10C8.15907 3.83325 6.66669 5.32564 6.66669 7.16659V33.8333C6.66669 35.6742 8.15907 37.1666 10 37.1666H30C31.841 37.1666 33.3334 35.6742 33.3334 33.8333V7.16659C33.3334 5.32564 31.841 3.83325 30 3.83325Z" stroke="#2563EB" stroke-width="2" stroke-linecap="round" stroke-linejoin="round"/>
<path d="M15 37.1667V30.5H25V37.1667" stroke="#2563EB" stroke-width="2" stroke-linecap="round" stroke-linejoin="round"/>
<path d="M13.3333 10.5H13.35" stroke="#2563EB" stroke-width="2" stroke-linecap="round" stroke-linejoin="round"/>
<path d="M26.6667 10.5H26.6834" stroke="#2563EB" stroke-width="2" stroke-linecap="round" stroke-linejoin="round"/>
<path d="M20 10.5H20.0167" stroke="#2563EB" stroke-width="2" stroke-linecap="round" stroke-linejoin="round"/>
<path d="M20 17.1667H20.0167" stroke="#2563EB" stroke-width="2" stroke-linecap="round" stroke-linejoin="round"/>
<path d="M20 23.8333H20.0167" stroke="#2563EB" stroke-width="2" stroke-linecap="round" stroke-linejoin="round"/>
<path d="M26.6667 17.1667H26.6834" stroke="#2563EB" stroke-width="2" stroke-linecap="round" stroke-linejoin="round"/>
<path d="M26.6667 23.8333H26.6834" stroke="#2563EB" stroke-width="2" stroke-linecap="round" stroke-linejoin="round"/>
<path d="M13.3333 17.1667H13.35" stroke="#2563EB" stroke-width="2" stroke-linecap="round" stroke-linejoin="round"/>
<path d="M13.3333 23.8333H13.35" stroke="#2563EB" stroke-width="2" stroke-linecap="round" stroke-linejoin="round"/>
</svg>
