<svg width="48" height="48" viewBox="0 0 48 48" fill="none" xmlns="http://www.w3.org/2000/svg">
<path d="M11.957 33.214L7.171 38L10 40.828L15.305 35.523C17.867 36.992 20.788 38 24 38C36 38 44 24 44 24C44 24 41.047 18.841 36.043 14.786L40.829 10L38 7.172L32.695 12.477C30.133 11.008 27.212 10 24 10C12 10 4 24 4 24C4 24 6.953 29.159 11.957 33.214ZM16 24C16 19.582 19.582 16 24 16C25.483 16 26.867 16.411 28.058 17.114L25.023 20.149C24.694 20.062 24.356 20 24 20C21.794 20 20 21.794 20 24C20 24.356 20.062 24.694 20.149 25.023L17.114 28.058C16.411 26.867 16 25.483 16 24ZM32 24C32 28.418 28.418 32 24 32C22.517 32 21.133 31.589 19.942 30.886L22.977 27.851C23.306 27.938 23.644 28 24 28C26.206 28 28 26.206 28 24C28 23.644 27.938 23.306 27.851 22.977L30.886 19.942C31.589 21.133 32 22.517 32 24Z" fill="white"/>
</svg>
