<svg width="21" height="21" viewBox="0 0 21 21" fill="none" xmlns="http://www.w3.org/2000/svg">
<path d="M13.6666 18.3333V16.6667C13.6666 15.7826 13.3154 14.9348 12.6903 14.3096C12.0652 13.6845 11.2174 13.3333 10.3333 13.3333H5.3333C4.44925 13.3333 3.6014 13.6845 2.97628 14.3096C2.35116 14.9348 1.99997 15.7826 1.99997 16.6667V18.3333" stroke="#DBEAFE" stroke-width="2" stroke-linecap="round" stroke-linejoin="round"/>
<path d="M7.8333 9.99999C9.67425 9.99999 11.1666 8.50761 11.1666 6.66666C11.1666 4.82571 9.67425 3.33333 7.8333 3.33333C5.99235 3.33333 4.49997 4.82571 4.49997 6.66666C4.49997 8.50761 5.99235 9.99999 7.8333 9.99999Z" stroke="#DBEAFE" stroke-width="2" stroke-linecap="round" stroke-linejoin="round"/>
<path d="M18.6667 18.3333V16.6667C18.6661 15.9281 18.4203 15.2106 17.9678 14.6269C17.5153 14.0432 16.8818 13.6263 16.1667 13.4417" stroke="#DBEAFE" stroke-width="2" stroke-linecap="round" stroke-linejoin="round"/>
<path d="M13.6667 3.44166C14.3837 3.62525 15.0192 4.04225 15.473 4.62692C15.9269 5.21159 16.1732 5.93069 16.1732 6.67083C16.1732 7.41097 15.9269 8.13006 15.473 8.71474C15.0192 9.29941 14.3837 9.71641 13.6667 9.9" stroke="#DBEAFE" stroke-width="2" stroke-linecap="round" stroke-linejoin="round"/>
</svg>
