<svg width="48" height="48" viewBox="0 0 48 48" fill="none" xmlns="http://www.w3.org/2000/svg">
<path d="M24 29C26.7614 29 29 26.7614 29 24C29 21.2386 26.7614 19 24 19C21.2386 19 19 21.2386 19 24C19 26.7614 21.2386 29 24 29Z" fill="black"/>
<path d="M24 16C26.7614 16 29 13.7614 29 11C29 8.23858 26.7614 6 24 6C21.2386 6 19 8.23858 19 11C19 13.7614 21.2386 16 24 16Z" fill="black"/>
<path d="M24 42C26.7614 42 29 39.7614 29 37C29 34.2386 26.7614 32 24 32C21.2386 32 19 34.2386 19 37C19 39.7614 21.2386 42 24 42Z" fill="black"/>
</svg>
