<svg width="48" height="48" viewBox="0 0 48 48" fill="none" xmlns="http://www.w3.org/2000/svg">
<path d="M24 10C12 10 4 24 4 24C4 24 12 38 24 38C36 38 44 24 44 24C44 24 36 10 24 10ZM24 36C15.086 36 8.378 27.034 6.362 23.998C8.373 20.958 15.058 12 24 12C32.914 12 39.622 20.966 41.638 24.002C39.627 27.042 32.942 36 24 36Z" fill="white"/>
<path d="M24 16C19.582 16 16 19.582 16 24C16 28.418 19.582 32 24 32C28.418 32 32 28.418 32 24C32 19.582 28.418 16 24 16ZM24 30C20.692 30 18 27.308 18 24C18 20.692 20.692 18 24 18C27.308 18 30 20.692 30 24C30 27.308 27.308 30 24 30Z" fill="white"/>
</svg>
