<svg width="18" height="23" viewBox="0 0 18 23" fill="none" xmlns="http://www.w3.org/2000/svg">
<path d="M17 12.5C17 17.5 13.5 20 9.34 21.45C9.12216 21.5238 8.88554 21.5202 8.67 21.44C4.5 20 1 17.5 1 12.5V5.49996C1 5.23474 1.10536 4.98039 1.29289 4.79285C1.48043 4.60532 1.73478 4.49996 2 4.49996C4 4.49996 6.5 3.29996 8.24 1.77996C8.45185 1.59896 8.72135 1.49951 9 1.49951C9.27865 1.49951 9.54815 1.59896 9.76 1.77996C11.51 3.30996 14 4.49996 16 4.49996C16.2652 4.49996 16.5196 4.60532 16.7071 4.79285C16.8946 4.98039 17 5.23474 17 5.49996V12.5Z" stroke="#BFDBFE" stroke-width="2" stroke-linecap="round" stroke-linejoin="round"/>
</svg>
